<svg width="259" height="265" viewBox="0 0 259 265" fill="none" xmlns="http://www.w3.org/2000/svg">
<path d="M19.9049 222.609C9.21547 222.609 2.51234 215.348 2.51234 203.693C2.51234 192.039 9.21547 184.752 19.9049 184.752C30.569 184.752 37.2721 192.039 37.2721 203.693C37.2721 215.348 30.569 222.609 19.9049 222.609ZM19.9049 217.023C26.4303 217.023 30.5944 211.844 30.5944 203.693C30.5944 195.518 26.4303 190.338 19.9049 190.338C13.3541 190.338 9.21547 195.518 9.21547 203.693C9.21547 211.844 13.3541 217.023 19.9049 217.023ZM42.9362 231.572C41.0827 231.572 39.7878 230.379 39.7878 228.246V197.803C39.7878 195.721 41.0573 194.553 42.8601 194.553C44.6628 194.553 45.9577 195.721 45.9577 197.803V199.732H46.0847C47.6081 196.609 50.655 194.629 54.5652 194.629C61.3952 194.629 65.737 199.936 65.737 208.543C65.737 217.125 61.4206 222.432 54.6667 222.432C50.7566 222.432 47.7097 220.553 46.237 217.531H46.1101V228.246C46.1101 230.379 44.7898 231.572 42.9362 231.572ZM52.6355 217.252C56.7234 217.252 59.2624 213.875 59.2624 208.543C59.2624 203.236 56.7234 199.834 52.6355 199.834C48.6999 199.834 46.0847 203.312 46.0593 208.543C46.0847 213.824 48.6999 217.252 52.6355 217.252ZM79.6785 222.533C71.452 222.533 66.6023 217.379 66.6023 208.645C66.6023 200.062 71.5535 194.527 79.323 194.527C86.6863 194.527 91.7137 199.758 91.7137 207.07C91.7137 208.949 90.6473 210.066 88.7684 210.066H72.8992V210.27C72.8992 214.764 75.5145 217.658 79.6277 217.658C82.4715 217.658 84.325 216.668 86.3562 214.078C87.0164 213.342 87.6004 213.062 88.4891 213.062C89.9109 213.062 91.0281 213.977 91.0281 215.5C91.0281 215.982 90.8758 216.541 90.5965 217.1C88.8191 220.527 84.8074 222.533 79.6785 222.533ZM72.95 205.902H85.5184C85.3914 201.992 82.9031 199.428 79.3484 199.428C75.7937 199.428 73.2039 202.043 72.95 205.902ZM96.87 222.508C95.0165 222.508 93.7216 221.314 93.7216 219.182V197.752C93.7216 195.797 94.8641 194.553 96.743 194.553C98.5966 194.553 99.8661 195.797 99.8661 197.752V199.631H99.993C101.44 196.432 104.233 194.578 108.372 194.578C114.313 194.578 117.69 198.387 117.69 204.607V219.182C117.69 221.314 116.395 222.508 114.542 222.508C112.688 222.508 111.368 221.314 111.368 219.182V205.877C111.368 202.068 109.591 199.936 105.985 199.936C102.354 199.936 100.044 202.551 100.044 206.41V219.182C100.044 221.314 98.7235 222.508 96.87 222.508ZM132.269 222.508C130.44 222.508 129.196 221.391 129.196 219.334V188.18C129.196 186.047 130.517 184.854 132.37 184.854C134.224 184.854 135.519 186.047 135.519 188.18V199.707H135.671C137.22 196.559 140.267 194.629 144.101 194.629C150.88 194.629 155.196 199.936 155.196 208.543C155.196 217.15 150.905 222.432 144.075 222.432C140.14 222.432 137.118 220.527 135.519 217.404H135.392V219.334C135.392 221.365 134.097 222.508 132.269 222.508ZM142.146 217.252C146.183 217.252 148.722 213.9 148.722 208.543C148.722 203.211 146.183 199.834 142.146 199.834C138.235 199.834 135.493 203.312 135.493 208.543C135.493 213.824 138.235 217.252 142.146 217.252ZM169.112 222.533C161.216 222.533 156.087 217.277 156.087 208.543C156.087 199.859 161.267 194.527 169.112 194.527C176.958 194.527 182.138 199.834 182.138 208.543C182.138 217.277 177.009 222.533 169.112 222.533ZM169.112 217.531C173.124 217.531 175.714 214.281 175.714 208.543C175.714 202.83 173.124 199.555 169.112 199.555C165.126 199.555 162.511 202.83 162.511 208.543C162.511 214.281 165.101 217.531 169.112 217.531ZM196.029 222.533C188.132 222.533 183.003 217.277 183.003 208.543C183.003 199.859 188.183 194.527 196.029 194.527C203.874 194.527 209.054 199.834 209.054 208.543C209.054 217.277 203.925 222.533 196.029 222.533ZM196.029 217.531C200.04 217.531 202.63 214.281 202.63 208.543C202.63 202.83 200.04 199.555 196.029 199.555C192.042 199.555 189.427 202.83 189.427 208.543C189.427 214.281 192.017 217.531 196.029 217.531ZM214.388 222.508C212.534 222.508 211.214 221.314 211.214 219.182V188.18C211.214 186.047 212.534 184.854 214.388 184.854C216.241 184.854 217.536 186.047 217.536 188.18V206.207H217.613L228.175 195.771C228.988 194.908 229.673 194.553 230.638 194.553C232.212 194.553 233.406 195.746 233.406 197.27C233.406 198.209 233.126 198.793 232.263 199.605L224.595 206.867L233.025 217.404C233.685 218.318 233.888 218.877 233.888 219.689C233.888 221.34 232.644 222.508 230.892 222.508C229.648 222.508 228.911 222.076 227.997 220.756L219.923 210.523L217.536 212.758V219.182C217.536 221.314 216.241 222.508 214.388 222.508ZM245.595 222.533C239.908 222.533 235.921 220.35 234.626 217.125C234.449 216.668 234.372 216.262 234.372 215.881C234.372 214.357 235.49 213.393 237.013 213.393C238.054 213.393 238.943 213.875 239.755 214.941C241.177 216.998 242.802 217.912 245.824 217.912C248.769 217.912 250.724 216.668 250.724 214.637C250.724 213.012 249.708 212.123 246.941 211.488L242.574 210.498C237.318 209.305 234.728 206.715 234.728 202.805C234.728 197.803 239.044 194.527 245.697 194.527C250.876 194.527 254.888 197.066 255.726 200.164C255.802 200.494 255.853 200.799 255.853 201.104C255.853 202.424 255.015 203.363 253.415 203.363C252.501 203.363 251.587 203.033 251.003 202.195C249.759 200.342 248.21 199.174 245.544 199.174C242.777 199.174 240.872 200.52 240.872 202.449C240.872 204.023 242.04 205.09 244.833 205.725L249.124 206.664C254.812 207.959 257.072 210.016 257.072 214.002C257.072 219.156 252.451 222.533 245.595 222.533Z" fill="black"/>
<path d="M29.8057 260C29.4365 260 29.208 259.763 29.208 259.376V247.818C29.208 247.432 29.4365 247.194 29.8057 247.194C30.1748 247.194 30.4033 247.432 30.4033 247.818V258.91H36.292C36.6436 258.91 36.8721 259.139 36.8721 259.455C36.8721 259.78 36.6436 260 36.292 260H29.8057ZM40.792 260.149C38.9902 260.149 37.7598 259.068 37.7598 257.469C37.7598 255.913 38.9199 254.955 41.0381 254.814L43.8945 254.639V253.848C43.8945 252.529 43.0596 251.738 41.6357 251.738C40.4492 251.738 39.6318 252.222 39.1836 253.338C39.0781 253.549 38.9199 253.654 38.6914 253.654C38.3838 253.654 38.1729 253.443 38.1729 253.127C38.1729 252.951 38.2344 252.74 38.3311 252.538C38.8057 251.448 40.0801 250.71 41.6621 250.71C43.7539 250.71 45.0547 251.879 45.0547 253.742V259.561C45.0547 259.912 44.8262 260.149 44.501 260.149C44.1758 260.149 43.9473 259.912 43.9473 259.561V258.26H43.9209C43.4111 259.394 42.1543 260.149 40.792 260.149ZM41.0293 259.147C42.6289 259.147 43.8945 258.014 43.8945 256.563V255.553L41.1787 255.737C39.7373 255.834 38.9375 256.467 38.9375 257.451C38.9375 258.471 39.7988 259.147 41.0293 259.147ZM47.5859 260.149C47.2432 260.149 47.0059 259.895 47.0059 259.525V251.299C47.0059 250.947 47.2256 250.71 47.5508 250.71C47.876 250.71 48.1045 250.947 48.1045 251.299V252.485H48.1309C48.4385 251.413 49.335 250.71 50.3369 250.71C50.6533 250.71 50.9082 250.771 51.0928 250.903C51.2246 251 51.3037 251.141 51.3037 251.325C51.3037 251.51 51.2334 251.65 51.0928 251.738C50.9258 251.826 50.7061 251.817 50.3018 251.817C48.8604 251.817 48.166 252.925 48.166 254.313V259.525C48.166 259.895 47.9287 260.149 47.5859 260.149ZM55.5576 263.384C53.9316 263.366 52.6836 262.681 52.1211 261.67C52.0332 261.521 51.9893 261.371 51.9893 261.213C51.9893 260.914 52.2002 260.703 52.5166 260.703C52.7188 260.703 52.8418 260.782 53.0176 261.011C53.6592 261.89 54.4414 262.373 55.6104 262.382C57.377 262.399 58.458 261.389 58.458 259.895V258.058H58.4316C57.9307 259.235 56.7529 260.088 55.2939 260.088C52.9824 260.088 51.4355 258.233 51.4355 255.403C51.4355 252.564 52.9824 250.71 55.3115 250.71C56.7969 250.71 57.9043 251.562 58.4316 252.74H58.458V251.316C58.458 250.947 58.7041 250.71 59.0381 250.71C59.3721 250.71 59.6182 250.947 59.6182 251.316V259.851C59.6182 261.978 58.0713 263.401 55.5576 263.384ZM55.5137 259.06C57.2627 259.06 58.458 257.592 58.458 255.403C58.458 253.215 57.2539 251.738 55.5137 251.738C53.7822 251.738 52.6309 253.188 52.6309 255.412C52.6309 257.618 53.7734 259.06 55.5137 259.06ZM65.3926 260.149C62.7646 260.149 61.1738 258.409 61.1738 255.474C61.1738 252.573 62.791 250.71 65.2607 250.71C67.5986 250.71 69.2158 252.468 69.2158 255.008C69.2158 255.447 68.9609 255.711 68.5303 255.711H62.3691C62.3691 257.855 63.5205 259.13 65.3398 259.13C66.6143 259.13 67.4756 258.594 68.0732 257.451C68.1875 257.275 68.3193 257.196 68.5127 257.196C68.8203 257.196 69.0312 257.39 69.0312 257.706C69.0312 257.803 68.9961 257.935 68.9434 258.066C68.4248 259.367 67.0977 260.149 65.3926 260.149ZM62.3779 254.788H68.0205C67.9941 252.951 66.8779 251.729 65.252 251.729C63.6172 251.729 62.4746 252.942 62.3779 254.788ZM73.8652 260.149C72.1865 260.149 70.8857 259.341 70.499 258.102C70.4551 257.996 70.4375 257.899 70.4375 257.803C70.4375 257.495 70.666 257.311 70.9736 257.311C71.2021 257.311 71.3604 257.434 71.501 257.724C71.9229 258.682 72.6699 259.191 73.9531 259.191C75.2715 259.191 76.1943 258.559 76.1943 257.583C76.1943 256.792 75.7373 256.37 74.5156 256.08L73.1797 255.755C71.4131 255.324 70.5781 254.533 70.5781 253.294C70.5781 251.765 71.9316 250.71 73.918 250.71C75.4824 250.71 76.7656 251.589 77.0205 252.819C77.0381 252.907 77.0469 252.978 77.0469 253.039C77.0469 253.329 76.8711 253.514 76.5898 253.514C76.3438 253.514 76.1855 253.426 76.0537 253.136C75.7021 252.23 75.0078 251.677 73.8477 251.677C72.6084 251.677 71.7383 252.336 71.7383 253.241C71.7383 253.979 72.2744 254.454 73.4785 254.744L74.7881 255.061C76.6689 255.509 77.3809 256.177 77.3809 257.495C77.3809 259.077 75.9482 260.149 73.8652 260.149ZM79.4287 257.935V251.826H78.5059C78.1631 251.826 77.9785 251.65 77.9785 251.343C77.9785 251.035 78.1631 250.859 78.5059 250.859H79.4287V249.049C79.4287 248.671 79.666 248.425 80.0088 248.425C80.3516 248.425 80.5889 248.671 80.5889 249.049V250.859H81.9424C82.2852 250.859 82.4785 251.035 82.4785 251.343C82.4785 251.65 82.2852 251.826 81.9424 251.826H80.5889V257.706C80.5889 258.603 80.9053 258.998 81.7402 259.033L81.9951 259.042C82.373 259.068 82.5576 259.227 82.5576 259.508C82.5576 259.859 82.3555 260.053 81.7314 260.053H81.4941C80.1055 260.053 79.4287 259.376 79.4287 257.935ZM88.3145 263.19C87.9717 263.19 87.7344 262.936 87.7344 262.566V251.299C87.7344 250.947 87.9629 250.71 88.2881 250.71C88.6133 250.71 88.833 250.947 88.833 251.299V252.793H88.8682C89.3691 251.58 90.5293 250.71 92.0146 250.71C94.3262 250.71 95.9082 252.591 95.9082 255.43C95.9082 258.277 94.335 260.149 92.041 260.149C90.5645 260.149 89.4131 259.306 88.9297 258.119H88.8945V262.566C88.8945 262.936 88.6572 263.19 88.3145 263.19ZM91.8125 259.121C93.5791 259.121 94.7217 257.662 94.7217 255.43C94.7217 253.206 93.5791 251.738 91.8125 251.738C90.0811 251.738 88.8945 253.232 88.8945 255.43C88.8945 257.636 90.0811 259.121 91.8125 259.121ZM97.9121 260C97.5518 260 97.3145 259.807 97.3145 259.49C97.3145 259.244 97.376 259.13 97.6572 258.831L101.823 254.463C103.625 252.564 104.1 251.8 104.1 250.684C104.1 249.251 102.957 248.17 101.428 248.17C99.8193 248.17 98.791 249.146 98.457 250.561C98.3867 250.824 98.2461 251 97.9121 251C97.5605 251 97.3584 250.771 97.3584 250.455C97.3584 250.35 97.3672 250.262 97.3848 250.139C97.5869 248.671 99.0195 247.115 101.41 247.115C103.66 247.115 105.295 248.592 105.295 250.622C105.295 251.984 104.653 253.03 102.518 255.245L99.0195 258.893V258.928H105.146C105.479 258.928 105.708 259.139 105.708 259.464C105.708 259.789 105.479 260 105.146 260H97.9121ZM107.984 263.19C107.642 263.19 107.404 262.936 107.404 262.566V251.299C107.404 250.947 107.633 250.71 107.958 250.71C108.283 250.71 108.503 250.947 108.503 251.299V252.793H108.538C109.039 251.58 110.199 250.71 111.685 250.71C113.996 250.71 115.578 252.591 115.578 255.43C115.578 258.277 114.005 260.149 111.711 260.149C110.234 260.149 109.083 259.306 108.6 258.119H108.564V262.566C108.564 262.936 108.327 263.19 107.984 263.19ZM111.482 259.121C113.249 259.121 114.392 257.662 114.392 255.43C114.392 253.206 113.249 251.738 111.482 251.738C109.751 251.738 108.564 253.232 108.564 255.43C108.564 257.636 109.751 259.121 111.482 259.121ZM121.493 260.149C121.15 260.149 120.913 259.895 120.913 259.525V247.792C120.913 247.423 121.15 247.168 121.493 247.168C121.836 247.168 122.073 247.423 122.073 247.792V259.525C122.073 259.895 121.836 260.149 121.493 260.149ZM124.815 249.014C124.394 249.014 124.042 248.671 124.042 248.24C124.042 247.818 124.394 247.476 124.815 247.476C125.246 247.476 125.598 247.818 125.598 248.24C125.598 248.671 125.246 249.014 124.815 249.014ZM124.815 260.149C124.473 260.149 124.235 259.895 124.235 259.525V251.334C124.235 250.965 124.473 250.71 124.815 250.71C125.158 250.71 125.396 250.965 125.396 251.334V259.525C125.396 259.895 125.158 260.149 124.815 260.149ZM128.103 260.149C127.777 260.149 127.558 259.921 127.558 259.578V247.792C127.558 247.423 127.804 247.168 128.138 247.168C128.48 247.168 128.727 247.423 128.727 247.792V252.767H128.753C129.28 251.51 130.449 250.71 131.891 250.71C134.176 250.71 135.74 252.582 135.74 255.43C135.74 258.277 134.185 260.149 131.873 260.149C130.414 260.149 129.254 259.35 128.7 258.066H128.674V259.578C128.674 259.921 128.437 260.149 128.103 260.149ZM131.662 259.121C133.42 259.121 134.554 257.671 134.554 255.43C134.554 253.197 133.42 251.738 131.662 251.738C129.939 251.738 128.718 253.241 128.718 255.43C128.718 257.627 129.939 259.121 131.662 259.121ZM137.885 260.149C137.542 260.149 137.305 259.895 137.305 259.525V251.299C137.305 250.947 137.524 250.71 137.85 250.71C138.175 250.71 138.403 250.947 138.403 251.299V252.485H138.43C138.737 251.413 139.634 250.71 140.636 250.71C140.952 250.71 141.207 250.771 141.392 250.903C141.523 251 141.603 251.141 141.603 251.325C141.603 251.51 141.532 251.65 141.392 251.738C141.225 251.826 141.005 251.817 140.601 251.817C139.159 251.817 138.465 252.925 138.465 254.313V259.525C138.465 259.895 138.228 260.149 137.885 260.149ZM145.136 260.149C143.334 260.149 142.104 259.068 142.104 257.469C142.104 255.913 143.264 254.955 145.382 254.814L148.238 254.639V253.848C148.238 252.529 147.403 251.738 145.979 251.738C144.793 251.738 143.976 252.222 143.527 253.338C143.422 253.549 143.264 253.654 143.035 253.654C142.728 253.654 142.517 253.443 142.517 253.127C142.517 252.951 142.578 252.74 142.675 252.538C143.149 251.448 144.424 250.71 146.006 250.71C148.098 250.71 149.398 251.879 149.398 253.742V259.561C149.398 259.912 149.17 260.149 148.845 260.149C148.52 260.149 148.291 259.912 148.291 259.561V258.26H148.265C147.755 259.394 146.498 260.149 145.136 260.149ZM145.373 259.147C146.973 259.147 148.238 258.014 148.238 256.563V255.553L145.522 255.737C144.081 255.834 143.281 256.467 143.281 257.451C143.281 258.471 144.143 259.147 145.373 259.147ZM151.93 260.149C151.587 260.149 151.35 259.895 151.35 259.525V251.299C151.35 250.947 151.569 250.71 151.895 250.71C152.22 250.71 152.448 250.947 152.448 251.299V252.485H152.475C152.782 251.413 153.679 250.71 154.681 250.71C154.997 250.71 155.252 250.771 155.437 250.903C155.568 251 155.647 251.141 155.647 251.325C155.647 251.51 155.577 251.65 155.437 251.738C155.27 251.826 155.05 251.817 154.646 251.817C153.204 251.817 152.51 252.925 152.51 254.313V259.525C152.51 259.895 152.272 260.149 151.93 260.149ZM157.52 263.305C156.939 263.305 156.579 263.103 156.579 262.716C156.579 262.452 156.755 262.276 157.045 262.276C157.229 262.276 157.291 262.303 157.511 262.303C158.161 262.303 158.671 261.916 159.084 260.747L159.33 260.062L156.078 251.554C156.034 251.448 156.017 251.334 156.017 251.246C156.017 250.921 156.263 250.71 156.605 250.71C156.878 250.71 157.054 250.833 157.159 251.141L159.928 258.84H159.954L162.731 251.141C162.846 250.833 162.995 250.71 163.285 250.71C163.619 250.71 163.856 250.93 163.856 251.246C163.856 251.334 163.839 251.448 163.795 251.554L160.367 260.554C159.567 262.681 158.917 263.305 157.52 263.305ZM172.514 260.149C170.018 260.149 168.348 258.321 168.348 255.43C168.348 252.538 170.018 250.71 172.514 250.71C175.01 250.71 176.68 252.538 176.68 255.43C176.68 258.321 175.01 260.149 172.514 260.149ZM172.514 259.121C174.324 259.121 175.502 257.732 175.502 255.43C175.502 253.127 174.324 251.738 172.514 251.738C170.712 251.738 169.534 253.118 169.534 255.43C169.534 257.741 170.712 259.121 172.514 259.121ZM179.281 260.149C178.921 260.149 178.692 259.912 178.692 259.534V251.826H177.805C177.497 251.826 177.304 251.65 177.304 251.352C177.304 251.053 177.497 250.859 177.805 250.859H178.692V249.699C178.692 248.056 179.519 247.291 180.907 247.291C181.619 247.291 181.971 247.493 181.971 247.845C181.971 248.073 181.856 248.205 181.637 248.258C181.522 248.284 181.347 248.293 181.153 248.293C180.292 248.293 179.853 248.715 179.853 249.752V250.859H181.435C181.742 250.859 181.936 251.053 181.936 251.352C181.936 251.65 181.742 251.826 181.435 251.826H179.861V259.534C179.861 259.912 179.633 260.149 179.281 260.149ZM187.657 260.149C187.332 260.149 187.112 259.921 187.112 259.578V247.792C187.112 247.423 187.358 247.168 187.692 247.168C188.035 247.168 188.281 247.423 188.281 247.792V252.767H188.308C188.835 251.51 190.004 250.71 191.445 250.71C193.73 250.71 195.295 252.582 195.295 255.43C195.295 258.277 193.739 260.149 191.428 260.149C189.969 260.149 188.809 259.35 188.255 258.066H188.229V259.578C188.229 259.921 187.991 260.149 187.657 260.149ZM191.217 259.121C192.975 259.121 194.108 257.671 194.108 255.43C194.108 253.197 192.975 251.738 191.217 251.738C189.494 251.738 188.272 253.241 188.272 255.43C188.272 257.627 189.494 259.121 191.217 259.121ZM200.568 260.149C198.072 260.149 196.402 258.321 196.402 255.43C196.402 252.538 198.072 250.71 200.568 250.71C203.064 250.71 204.734 252.538 204.734 255.43C204.734 258.321 203.064 260.149 200.568 260.149ZM200.568 259.121C202.379 259.121 203.557 257.732 203.557 255.43C203.557 253.127 202.379 251.738 200.568 251.738C198.767 251.738 197.589 253.118 197.589 255.43C197.589 257.741 198.767 259.121 200.568 259.121ZM209.99 260.149C207.494 260.149 205.824 258.321 205.824 255.43C205.824 252.538 207.494 250.71 209.99 250.71C212.486 250.71 214.156 252.538 214.156 255.43C214.156 258.321 212.486 260.149 209.99 260.149ZM209.99 259.121C211.801 259.121 212.979 257.732 212.979 255.43C212.979 253.127 211.801 251.738 209.99 251.738C208.188 251.738 207.011 253.118 207.011 255.43C207.011 257.741 208.188 259.121 209.99 259.121ZM216.362 260.149C216.028 260.149 215.782 259.895 215.782 259.525V247.792C215.782 247.423 216.028 247.168 216.362 247.168C216.705 247.168 216.951 247.423 216.951 247.792V255.184L221.521 250.903C221.671 250.763 221.785 250.71 221.952 250.71C222.233 250.71 222.453 250.93 222.453 251.193C222.453 251.36 222.4 251.466 222.26 251.598L218.806 254.806L222.497 259.244C222.611 259.385 222.655 259.499 222.655 259.648C222.655 259.938 222.418 260.149 222.11 260.149C221.926 260.149 221.803 260.097 221.671 259.93L217.971 255.518L216.951 256.458V259.525C216.951 259.895 216.705 260.149 216.362 260.149ZM226.918 260.149C225.239 260.149 223.938 259.341 223.552 258.102C223.508 257.996 223.49 257.899 223.49 257.803C223.49 257.495 223.719 257.311 224.026 257.311C224.255 257.311 224.413 257.434 224.554 257.724C224.976 258.682 225.723 259.191 227.006 259.191C228.324 259.191 229.247 258.559 229.247 257.583C229.247 256.792 228.79 256.37 227.568 256.08L226.232 255.755C224.466 255.324 223.631 254.533 223.631 253.294C223.631 251.765 224.984 250.71 226.971 250.71C228.535 250.71 229.818 251.589 230.073 252.819C230.091 252.907 230.1 252.978 230.1 253.039C230.1 253.329 229.924 253.514 229.643 253.514C229.396 253.514 229.238 253.426 229.106 253.136C228.755 252.23 228.061 251.677 226.9 251.677C225.661 251.677 224.791 252.336 224.791 253.241C224.791 253.979 225.327 254.454 226.531 254.744L227.841 255.061C229.722 255.509 230.434 256.177 230.434 257.495C230.434 259.077 229.001 260.149 226.918 260.149Z" fill="black"/>
<path d="M205.438 97.7523C205.062 97.563 204.812 97.4999 204.625 97.3736C204.375 97.2474 204.125 97.1212 203.875 97.0581C198.812 94.7232 193.625 92.7669 188.188 91.5679C186.812 91.2524 185.375 91 183.938 91C182.562 91 181.125 91.3155 179.75 91.6311C167.125 94.4077 155.75 99.961 145.688 108.165C143.312 110.058 141.188 112.267 139.438 114.728C139.125 115.232 138.938 115.674 138.938 116.305C139 118.009 138.938 119.65 138.938 121.354C138.938 121.543 138.938 121.732 139 121.922C139.625 121.228 140.125 120.533 140.688 119.965C143.688 116.747 147.188 114.223 150.938 112.014C158.812 107.344 167.188 104.063 175.938 101.602C185.438 98.9513 195.062 97.2474 204.938 97.7523C205.062 97.7523 205.125 97.7523 205.438 97.7523ZM70.125 99.8979C70.125 99.961 70.125 99.961 70.125 100.024C70.25 100.024 70.375 100.024 70.5 100.024C78.1875 99.8348 85.75 100.466 93.3125 101.917C102.937 103.684 112.25 106.587 121.062 111.068C127.062 114.097 132.625 117.694 137.375 122.553C137.438 122.616 137.5 122.679 137.688 122.805C137.688 121.101 137.625 119.524 137.688 117.946C137.75 116.747 137.312 115.8 136.562 115.043C135.75 114.16 134.875 113.339 133.875 112.582C129.937 109.427 125.5 107.092 121.062 104.82C116.187 102.296 111.187 100.15 106.062 98.2571C100.875 96.364 95.625 94.597 90.0625 93.9028C88.75 93.7135 87.3125 93.5873 86.125 93.966C81.9375 95.3543 77.875 96.9319 73.75 98.5095C72.5625 98.8882 71.3125 99.393 70.125 99.8979ZM212.75 108.733C212.562 108.606 212.5 108.543 212.438 108.48C207.938 105.388 203.375 102.359 198.875 99.2668C198.688 99.1406 198.375 99.0144 198.125 99.0775C195.062 99.393 191.938 99.5823 188.875 100.087C181.812 101.16 174.938 103.053 168.188 105.451C161.125 108.038 154.312 111.131 148.062 115.422C145.062 117.441 142.312 119.713 140.125 122.679C139.875 122.994 139.688 123.31 139.5 123.626C140.25 124.067 140.75 123.752 141.125 123.121C141.375 122.679 141.75 122.363 142.125 121.985C144.438 119.65 147.125 117.946 150 116.558C157.562 112.834 165.625 110.752 173.875 109.237C179.625 108.228 185.375 107.597 191.188 107.407C196.938 107.218 202.688 107.344 208.375 108.102C209.812 108.228 211.188 108.48 212.75 108.733ZM226.188 133.091C225.938 133.722 225.5 133.785 225 133.785C223.312 133.722 221.688 133.722 220 133.659C205.688 133.344 191.375 132.965 177.125 132.65C166.938 132.397 156.75 132.208 146.562 131.955C145.875 131.955 145.25 132.082 144.688 132.523C143.312 133.596 141.688 133.975 140.062 134.101C137.75 134.353 135.5 134.038 133.312 133.218C132.5 132.902 131.75 132.46 131.25 131.766C130.875 131.261 130.438 131.135 129.875 131.135C121.5 131.324 113.125 131.577 104.75 131.766C96.875 131.955 89 132.145 81.0625 132.334C71.0625 132.586 61.0625 132.839 51 133.028C50.0625 133.028 49.375 133.47 48.625 133.849C48.4375 133.912 48.25 134.164 48.1875 134.353C48.0625 134.543 48.0625 134.795 48 135.048C48.1875 135.111 48.4375 135.174 48.625 135.174C54.9375 134.984 61.25 134.732 67.625 134.543C78.9375 134.164 90.25 133.722 101.562 133.344C110.437 133.028 119.312 132.713 128.188 132.397C128.438 132.397 128.625 132.334 128.875 132.271C129.375 132.082 129.688 132.208 130 132.65C130.125 132.839 130.312 133.028 130.5 133.218C131.625 134.227 132.875 134.921 134.312 135.3C138.625 136.499 142.688 136.31 146.438 133.533C146.688 133.344 147.125 133.154 147.438 133.218C157.062 133.47 166.688 133.722 176.375 133.975C183.625 134.164 190.875 134.353 198.125 134.543C207.875 134.795 217.625 135.048 227.438 135.3C227.562 135.3 227.75 135.3 228 135.237C227.375 134.353 226.812 133.722 226.188 133.091ZM143.438 127.601C143.375 127.664 143.375 127.727 143.312 127.79C143.5 127.854 143.75 127.98 143.938 127.98C155.125 128.106 166.312 128.169 177.5 128.295C192.312 128.422 207.125 128.548 221.938 128.674C222.188 128.674 222.375 128.674 222.75 128.674C222.375 127.98 222.062 127.412 221.688 126.907C221.5 126.655 221.125 126.339 220.75 126.339C218.625 126.213 216.5 126.15 214.375 126.087C211.188 125.96 208 125.771 204.75 125.582C201.312 125.392 197.875 125.014 194.438 124.951C189.438 124.825 184.375 124.825 179.375 124.825C174.938 124.825 170.438 124.888 166 125.077C163 125.203 160 125.456 157 125.771C154.812 125.96 152.625 126.213 150.5 126.528C148.188 126.781 145.812 127.223 143.438 127.601ZM148.312 120.786C148.312 120.849 148.375 120.912 148.375 120.912C148.438 120.912 148.5 120.912 148.562 120.912C154.312 119.082 160.25 118.198 166.188 117.694C171.063 117.315 176 117.063 180.875 116.936C187.188 116.81 193.5 116.999 199.812 117.504C204.562 117.883 209.25 118.388 214 118.893C214.812 118.956 215.625 119.082 216.438 119.208C214.875 117.694 213.312 116.305 211.75 114.854C211.188 114.349 210.562 114.033 209.812 113.907C209.062 113.781 208.25 113.655 207.5 113.529C200.938 112.582 194.312 112.519 187.688 112.834C181.312 113.15 175 113.844 168.688 114.917C163.188 115.864 157.688 117.126 152.438 119.082C151.062 119.587 149.688 120.218 148.312 120.786ZM59 118.388C60.625 117.946 62.0625 117.504 63.5625 117.189C69.75 115.8 76 115.422 82.3125 115.359C92.5625 115.232 102.75 116.116 112.875 117.883C118.938 118.956 125 120.344 130.75 122.553C130.812 122.553 130.875 122.553 130.938 122.616C130.688 122.427 130.438 122.237 130.188 122.174C126.938 120.912 123.75 119.524 120.5 118.388C112.375 115.674 104 113.907 95.5 112.645C87.8125 111.509 80.125 110.752 72.375 111.068C69.8125 111.131 67.1875 111.635 64.625 111.888C64.375 111.888 64.125 112.077 64 112.203C62.3125 114.223 60.6875 116.242 59 118.388ZM56.5625 123.31C59.125 122.994 61.75 122.616 64.375 122.3C66.5 122.048 68.6875 121.795 70.8125 121.606C73.375 121.417 75.9375 121.354 78.5 121.164C81.9375 120.912 85.375 120.533 88.8125 120.344C91.75 120.155 94.6875 120.092 97.625 120.028C100.5 120.028 103.375 120.092 106.25 120.155C107.937 120.218 109.625 120.407 111.25 120.66C115.125 121.228 119.062 121.669 122.938 122.426C126.562 123.184 130.125 124.193 133.562 125.645C133.75 125.708 133.938 125.645 134.125 125.645C134.125 125.582 134.125 125.519 134.125 125.456C133.938 125.329 133.75 125.266 133.562 125.14C131.188 124.193 128.812 123.184 126.437 122.363C120.437 120.407 114.25 119.208 108.062 118.325C102.125 117.441 96.125 116.936 90.125 116.684C84.5 116.495 78.875 116.495 73.25 116.999C69.625 117.315 66 117.82 62.4375 118.703C62.25 118.766 62 118.829 61.875 118.893C60.25 120.218 58.5625 121.543 56.9375 122.868C56.75 123.121 56.625 123.247 56.5625 123.31ZM62.25 111.004C62.375 111.004 62.4375 111.004 62.5 111.004C66.5625 109.869 70.8125 109.616 75 109.616C81.125 109.553 87.25 110.121 93.375 110.941C101.437 112.014 109.437 113.592 117.25 115.864C122.812 117.504 128.312 119.334 133.438 122.237C133.5 122.3 133.562 122.3 133.625 122.3C133.625 122.237 133.688 122.237 133.688 122.174C132.625 121.48 131.5 120.723 130.438 120.028C125.375 117.063 119.938 114.917 114.438 113.087C106.687 110.5 98.75 108.543 90.6875 107.155C84.0625 106.019 77.4375 105.262 70.6875 105.451C68.0625 105.514 68.0625 105.514 66.1875 107.281C66.125 107.344 66.0625 107.407 65.9375 107.471C64.6875 108.67 63.5 109.805 62.25 111.004ZM67 104.252C67 104.315 67 104.315 67 104.378C67.875 104.315 68.75 104.252 69.625 104.189C75.9375 103.874 82.25 104.505 88.5 105.451C96.4375 106.65 104.187 108.48 111.812 110.878C118.25 112.898 124.562 115.232 130.5 118.577C130.562 118.64 130.687 118.64 130.75 118.64C130.687 118.514 130.562 118.388 130.438 118.325C125.125 114.412 119.312 111.383 113.125 108.985C100.437 104 87.25 101.475 73.625 101.349C72.9375 101.349 72.3125 101.476 71.6875 101.854C70.125 102.675 68.5625 103.432 67 104.252ZM142.75 126.024C142.813 126.087 142.812 126.15 142.875 126.213C143.188 126.213 143.5 126.213 143.875 126.15C148.5 125.329 153.125 124.635 157.875 124.257C162.062 123.941 166.188 123.626 170.375 123.436C174.5 123.31 178.562 123.436 182.688 123.373C189.75 123.31 196.75 123.373 203.75 124.004C208.5 124.446 213.312 124.698 218.062 125.014C218.938 125.077 219.75 125.014 220.625 125.014C220.625 124.951 220.625 124.888 220.625 124.825C219.5 123.815 218.375 122.868 217.188 121.859C217.188 121.985 217.187 121.985 217.25 122.048C217.562 122.427 218.062 122.742 217.75 123.247C217.438 123.815 216.875 123.626 216.375 123.562C216.312 123.562 216.313 123.562 216.25 123.562C214.688 123.31 213.125 122.931 211.5 122.742C207.375 122.363 203.25 121.859 199.125 121.732C191.625 121.48 184.062 121.417 176.5 121.417C170.688 121.417 164.938 121.48 159.125 121.669C156.25 121.795 153.375 122.048 150.5 122.49C147.938 122.868 145.562 123.878 143.312 125.203C143.188 125.519 143 125.834 142.75 126.024ZM51.75 128.989C52.125 128.989 52.3125 128.989 52.5625 128.989C61.1875 128.611 69.875 128.232 78.5 127.917C85.625 127.664 92.75 127.412 99.875 127.223C101.937 127.159 104 127.096 106.125 127.159C112.187 127.223 118.312 127.412 124.375 127.475C125.25 127.475 126.062 127.475 126.938 127.475C126.75 127.349 126.625 127.286 126.437 127.286C122.5 126.276 118.5 125.96 114.5 125.708C110.312 125.456 106.062 125.266 101.812 125.203C97.125 125.14 92.4375 125.203 87.75 125.203C84.75 125.203 81.6875 125.203 78.6875 125.329C75.125 125.456 71.5625 125.771 68 126.024C65 126.213 61.9375 126.465 58.9375 126.781C57.875 126.907 56.8125 127.286 55.75 127.475C55.4375 127.538 55 127.475 54.75 127.286C54.375 126.97 54.625 126.591 54.8125 126.276C55.0625 125.834 55.3125 125.392 55.6875 124.825C55.1875 125.014 54.6875 125.014 54.5 125.266C53.5625 126.402 52.6875 127.664 51.75 128.989ZM224.75 132.397C224.562 131.892 224.375 131.514 224.188 131.072C223.875 130.252 223.375 129.999 222.438 129.999C218.812 130.062 215.188 129.999 211.562 129.936C189.438 129.747 167.312 129.557 145.188 129.305C144.938 129.305 144.625 129.305 144.375 129.305C144.312 129.368 144.312 129.431 144.25 129.494C144.625 129.873 145 130.441 145.438 130.504C146.562 130.693 147.688 130.567 148.812 130.63C161.5 130.946 174.125 131.198 186.812 131.514C199.312 131.829 211.812 132.082 224.312 132.397C224.375 132.397 224.5 132.397 224.75 132.397ZM214.938 113.844C213.688 112.582 212.375 111.446 210.875 110.626C210 110.184 209.188 109.616 208.25 109.49C205.875 109.174 203.5 108.922 201.125 108.796C195 108.48 188.875 108.733 182.75 109.364C176.625 109.995 170.562 111.068 164.562 112.645C159.25 114.033 154.125 115.8 149.312 118.451C148.188 119.082 147.125 119.776 146.062 120.407C146.062 120.47 146.125 120.533 146.125 120.533C149 118.829 152.125 117.694 155.312 116.684C164 114.033 172.875 112.645 181.938 111.825C188 111.32 194.062 111.068 200.125 111.446C203.188 111.635 206.312 112.014 209.375 112.456C211.125 112.771 213 113.339 214.938 113.844ZM56.375 125.96C56.625 125.897 56.75 125.897 56.8125 125.897C59.625 125.203 62.5 125.014 65.4375 124.888C68.0625 124.761 70.6875 124.698 73.3125 124.509C76 124.32 78.625 123.941 81.25 123.941C93 123.941 104.812 123.436 116.562 124.572C119.437 124.825 122.375 125.203 125.187 125.708C127.625 126.15 130 126.97 132.438 127.601C132.875 127.727 133.188 127.664 133.188 127.159C133 127.096 132.875 126.97 132.75 126.97C129.625 125.96 126.5 124.825 123.312 124.004C120.25 123.247 117.062 122.868 113.875 122.49C111.187 122.111 108.562 121.795 105.875 121.606C103.437 121.417 101 121.48 98.5625 121.48C96.5625 121.48 94.5625 121.669 92.5625 121.732C91.3125 121.795 90 121.669 88.75 121.795C85.3125 122.048 81.9375 122.49 78.5 122.616C74.0625 122.805 69.625 123.058 65.25 123.626C62.9375 123.941 60.625 124.193 58.3125 124.509C57.4375 124.446 57 125.203 56.375 125.96ZM132.25 128.989C132.062 128.989 131.938 128.926 131.812 128.926C127.063 128.863 122.312 128.737 117.562 128.674C110.437 128.611 103.312 128.422 96.1875 128.548C89.125 128.674 82.0625 129.116 75 129.368C67.25 129.684 59.5 129.999 51.8125 130.315C50.875 130.378 50.5 130.946 50 131.64C50.375 131.64 50.625 131.64 50.9375 131.64C60.8125 131.387 70.6875 131.135 80.625 130.946C86.875 130.82 93.125 130.63 99.375 130.504C110 130.252 120.562 129.999 131.188 129.81C131.688 129.747 132 129.557 132.25 128.989ZM154.625 120.66C158.25 120.596 161.875 120.344 165.5 120.344C172.812 120.281 180.125 120.155 187.438 120.281C193.062 120.344 198.625 120.66 204.188 120.975C207.062 121.101 210 121.48 212.875 121.795C213.75 121.859 214.562 122.048 215.375 122.237C215.125 121.795 214.875 121.417 214.5 121.164C213.875 120.66 213.188 120.155 212.312 120.092C210.438 119.902 208.562 119.713 206.75 119.524C200.625 118.893 194.438 118.514 188.25 118.451C179.562 118.325 170.938 118.514 162.312 119.587C159.75 119.776 157.188 120.281 154.625 120.66Z" fill="url(#paint0_linear_727_2)"/>
<path d="M175.795 56.9197L170.972 52.096C170.246 51.3686 169.642 50.5291 169.182 49.6097L164.592 40.4297C164.468 40.1806 164.285 39.9646 164.06 39.7998C163.836 39.6349 163.575 39.5257 163.3 39.4813C163.025 39.4369 162.743 39.4585 162.478 39.5443C162.213 39.6302 161.972 39.7778 161.775 39.975C161.331 40.4179 160.778 40.7342 160.171 40.8911C159.564 41.0481 158.926 41.0399 158.324 40.8675L152.913 39.3247C152.048 39.0814 151.124 39.1543 150.307 39.5306C149.49 39.9068 148.835 40.5616 148.457 41.3777C148.079 42.1937 148.005 43.1176 148.247 43.9836C148.489 44.8497 149.031 45.6012 149.777 46.1035L152.272 47.761C154.779 49.4397 155.136 52.9885 153.003 55.122L152.153 55.972C151.252 56.873 150.75 58.0885 150.75 59.355V61.0975C150.75 62.8357 150.283 64.5357 149.39 66.019L143.801 75.3307C143.005 76.6595 141.877 77.7592 140.529 78.5226C139.181 79.286 137.658 79.6872 136.109 79.687C134.92 79.687 133.779 79.2146 132.938 78.3737C132.098 77.5328 131.625 76.3924 131.625 75.2032V70.2222C131.625 66.3122 129.245 62.7975 125.616 61.344L122.832 60.2347C120.807 59.4239 119.119 57.945 118.05 56.0433C116.981 54.1416 116.594 51.9315 116.954 49.7797L116.984 49.6012C117.182 48.4189 117.6 47.2843 118.216 46.2565L118.599 45.619C119.614 43.9288 121.127 42.5936 122.93 41.7963C124.733 40.999 126.738 40.7785 128.671 41.165L133.678 42.168C134.856 42.4029 136.08 42.1858 137.105 41.5598C138.13 40.9337 138.882 39.9446 139.211 38.7892L140.095 35.6867C140.402 34.6149 140.324 33.4697 139.875 32.4492C139.427 31.4288 138.636 30.5971 137.639 30.098L134.813 28.687L134.426 29.0737C133.538 29.9617 132.484 30.666 131.324 31.1466C130.163 31.6271 128.92 31.8745 127.664 31.8745H126.899C125.844 31.876 124.833 32.2946 124.086 33.039C123.404 33.7268 122.494 34.1407 121.528 34.2025C120.561 34.2642 119.606 33.9694 118.842 33.3739C118.078 32.7784 117.56 31.9236 117.384 30.9713C117.209 30.019 117.388 29.0354 117.889 28.2067L123.886 18.2065C124.484 17.2124 124.896 16.1179 125.101 14.9765M175.795 56.9197C176.825 50.3625 176.13 43.6503 173.78 37.4429C171.43 31.2355 167.504 25.7465 162.39 21.5155C157.276 17.2846 151.149 14.4573 144.611 13.3115C138.073 12.1657 131.35 12.741 125.101 14.9807C118.745 17.2593 113.105 21.1801 108.754 26.3446C104.404 31.5091 101.498 37.7333 100.332 44.3846C99.1669 51.036 99.7828 57.8773 102.118 64.2135C104.453 70.5496 108.423 76.1547 113.626 80.4591C118.829 84.7635 125.079 87.6138 131.741 88.7203C138.402 89.8268 145.238 89.1501 151.553 86.759C157.868 84.3678 163.437 80.3475 167.695 75.1065C171.953 69.8655 174.748 63.5907 175.795 56.9197Z" stroke="#2A1515" stroke-width="6.375" stroke-linecap="round" stroke-linejoin="round"/>
<defs>
<linearGradient id="paint0_linear_727_2" x1="138" y1="91" x2="138" y2="136" gradientUnits="userSpaceOnUse">
<stop/>
<stop offset="1" stop-color="#52482E"/>
</linearGradient>
</defs>
</svg>
