<svg width="180" height="136" viewBox="0 0 180 136" fill="none" xmlns="http://www.w3.org/2000/svg">
<path d="M157.438 97.7523C157.062 97.563 156.812 97.4999 156.625 97.3736C156.375 97.2474 156.125 97.1212 155.875 97.0581C150.812 94.7232 145.625 92.7669 140.188 91.5679C138.812 91.2524 137.375 91 135.938 91C134.562 91 133.125 91.3155 131.75 91.6311C119.125 94.4077 107.75 99.961 97.6875 108.165C95.3125 110.058 93.1875 112.267 91.4375 114.728C91.125 115.232 90.9375 115.674 90.9375 116.305C91 118.009 90.9375 119.65 90.9375 121.354C90.9375 121.543 90.9375 121.732 91 121.922C91.625 121.228 92.125 120.533 92.6875 119.965C95.6875 116.747 99.1875 114.223 102.938 112.014C110.812 107.344 119.188 104.063 127.938 101.602C137.438 98.9513 147.062 97.2474 156.938 97.7523C157.062 97.7523 157.125 97.7523 157.438 97.7523ZM22.125 99.8979C22.125 99.961 22.125 99.961 22.125 100.024C22.25 100.024 22.375 100.024 22.5 100.024C30.1875 99.8348 37.75 100.466 45.3125 101.917C54.9375 103.684 64.25 106.587 73.0625 111.068C79.0625 114.097 84.625 117.694 89.375 122.553C89.4375 122.616 89.5 122.679 89.6875 122.805C89.6875 121.101 89.625 119.524 89.6875 117.946C89.75 116.747 89.3125 115.8 88.5625 115.043C87.75 114.16 86.875 113.339 85.875 112.582C81.9375 109.427 77.5 107.092 73.0625 104.82C68.1875 102.296 63.1875 100.15 58.0625 98.2571C52.875 96.364 47.625 94.597 42.0625 93.9028C40.75 93.7135 39.3125 93.5873 38.125 93.966C33.9375 95.3543 29.875 96.9319 25.75 98.5095C24.5625 98.8882 23.3125 99.393 22.125 99.8979ZM164.75 108.733C164.562 108.606 164.5 108.543 164.438 108.48C159.938 105.388 155.375 102.359 150.875 99.2668C150.688 99.1406 150.375 99.0144 150.125 99.0775C147.062 99.393 143.938 99.5823 140.875 100.087C133.812 101.16 126.938 103.053 120.188 105.451C113.125 108.038 106.312 111.131 100.062 115.422C97.0625 117.441 94.3125 119.713 92.125 122.679C91.875 122.994 91.6875 123.31 91.5 123.626C92.25 124.067 92.75 123.752 93.125 123.121C93.375 122.679 93.75 122.363 94.125 121.985C96.4375 119.65 99.125 117.946 102 116.558C109.562 112.834 117.625 110.752 125.875 109.237C131.625 108.228 137.375 107.597 143.188 107.407C148.938 107.218 154.688 107.344 160.375 108.102C161.812 108.228 163.188 108.48 164.75 108.733ZM178.188 133.091C177.938 133.722 177.5 133.785 177 133.785C175.312 133.722 173.688 133.722 172 133.659C157.688 133.344 143.375 132.965 129.125 132.65C118.938 132.397 108.75 132.208 98.5625 131.955C97.875 131.955 97.25 132.082 96.6875 132.523C95.3125 133.596 93.6875 133.975 92.0625 134.101C89.75 134.353 87.5 134.038 85.3125 133.218C84.5 132.902 83.75 132.46 83.25 131.766C82.875 131.261 82.4375 131.135 81.875 131.135C73.5 131.324 65.125 131.577 56.75 131.766C48.875 131.955 41 132.145 33.0625 132.334C23.0625 132.586 13.0625 132.839 3 133.028C2.0625 133.028 1.375 133.47 0.625 133.849C0.4375 133.912 0.25 134.164 0.1875 134.353C0.0625001 134.543 0.0625 134.795 0 135.048C0.1875 135.111 0.4375 135.174 0.625 135.174C6.9375 134.984 13.25 134.732 19.625 134.543C30.9375 134.164 42.25 133.722 53.5625 133.344C62.4375 133.028 71.3125 132.713 80.1875 132.397C80.4375 132.397 80.625 132.334 80.875 132.271C81.375 132.082 81.6875 132.208 82 132.65C82.125 132.839 82.3125 133.028 82.5 133.218C83.625 134.227 84.875 134.921 86.3125 135.3C90.625 136.499 94.6875 136.31 98.4375 133.533C98.6875 133.344 99.125 133.154 99.4375 133.218C109.062 133.47 118.688 133.722 128.375 133.975C135.625 134.164 142.875 134.353 150.125 134.543C159.875 134.795 169.625 135.048 179.438 135.3C179.562 135.3 179.75 135.3 180 135.237C179.375 134.353 178.812 133.722 178.188 133.091ZM95.4375 127.601C95.375 127.664 95.375 127.727 95.3125 127.79C95.5 127.854 95.75 127.98 95.9375 127.98C107.125 128.106 118.312 128.169 129.5 128.295C144.312 128.422 159.125 128.548 173.938 128.674C174.188 128.674 174.375 128.674 174.75 128.674C174.375 127.98 174.062 127.412 173.688 126.907C173.5 126.655 173.125 126.339 172.75 126.339C170.625 126.213 168.5 126.15 166.375 126.087C163.188 125.96 160 125.771 156.75 125.582C153.312 125.392 149.875 125.014 146.438 124.951C141.438 124.825 136.375 124.825 131.375 124.825C126.938 124.825 122.438 124.888 118 125.077C115 125.203 112 125.456 109 125.771C106.812 125.96 104.625 126.213 102.5 126.528C100.188 126.781 97.8125 127.223 95.4375 127.601ZM100.312 120.786C100.312 120.849 100.375 120.912 100.375 120.912C100.438 120.912 100.5 120.912 100.562 120.912C106.312 119.082 112.25 118.198 118.188 117.694C123.063 117.315 128 117.063 132.875 116.936C139.188 116.81 145.5 116.999 151.812 117.504C156.562 117.883 161.25 118.388 166 118.893C166.812 118.956 167.625 119.082 168.438 119.208C166.875 117.694 165.312 116.305 163.75 114.854C163.188 114.349 162.562 114.033 161.812 113.907C161.062 113.781 160.25 113.655 159.5 113.529C152.938 112.582 146.312 112.519 139.688 112.834C133.312 113.15 127 113.844 120.688 114.917C115.188 115.864 109.688 117.126 104.438 119.082C103.062 119.587 101.688 120.218 100.312 120.786ZM11 118.388C12.625 117.946 14.0625 117.504 15.5625 117.189C21.75 115.8 28 115.422 34.3125 115.359C44.5625 115.232 54.75 116.116 64.875 117.883C70.9375 118.956 77 120.344 82.75 122.553C82.8125 122.553 82.875 122.553 82.9375 122.616C82.6875 122.427 82.4375 122.237 82.1875 122.174C78.9375 120.912 75.75 119.524 72.5 118.388C64.375 115.674 56 113.907 47.5 112.645C39.8125 111.509 32.125 110.752 24.375 111.068C21.8125 111.131 19.1875 111.635 16.625 111.888C16.375 111.888 16.125 112.077 16 112.203C14.3125 114.223 12.6875 116.242 11 118.388ZM8.5625 123.31C11.125 122.994 13.75 122.616 16.375 122.3C18.5 122.048 20.6875 121.795 22.8125 121.606C25.375 121.417 27.9375 121.354 30.5 121.164C33.9375 120.912 37.375 120.533 40.8125 120.344C43.75 120.155 46.6875 120.092 49.625 120.028C52.5 120.028 55.375 120.092 58.25 120.155C59.9375 120.218 61.625 120.407 63.25 120.66C67.125 121.228 71.0625 121.669 74.9375 122.426C78.5625 123.184 82.125 124.193 85.5625 125.645C85.75 125.708 85.9375 125.645 86.125 125.645C86.125 125.582 86.125 125.519 86.125 125.456C85.9375 125.329 85.75 125.266 85.5625 125.14C83.1875 124.193 80.8125 123.184 78.4375 122.363C72.4375 120.407 66.25 119.208 60.0625 118.325C54.125 117.441 48.125 116.936 42.125 116.684C36.5 116.495 30.875 116.495 25.25 116.999C21.625 117.315 18 117.82 14.4375 118.703C14.25 118.766 14 118.829 13.875 118.893C12.25 120.218 10.5625 121.543 8.9375 122.868C8.75 123.121 8.625 123.247 8.5625 123.31ZM14.25 111.004C14.375 111.004 14.4375 111.004 14.5 111.004C18.5625 109.869 22.8125 109.616 27 109.616C33.125 109.553 39.25 110.121 45.375 110.941C53.4375 112.014 61.4375 113.592 69.25 115.864C74.8125 117.504 80.3125 119.334 85.4375 122.237C85.5 122.3 85.5625 122.3 85.625 122.3C85.625 122.237 85.6875 122.237 85.6875 122.174C84.625 121.48 83.5 120.723 82.4375 120.028C77.375 117.063 71.9375 114.917 66.4375 113.087C58.6875 110.5 50.75 108.543 42.6875 107.155C36.0625 106.019 29.4375 105.262 22.6875 105.451C20.0625 105.514 20.0625 105.514 18.1875 107.281C18.125 107.344 18.0625 107.407 17.9375 107.471C16.6875 108.67 15.5 109.805 14.25 111.004ZM19 104.252C19 104.315 19 104.315 19 104.378C19.875 104.315 20.75 104.252 21.625 104.189C27.9375 103.874 34.25 104.505 40.5 105.451C48.4375 106.65 56.1875 108.48 63.8125 110.878C70.25 112.898 76.5625 115.232 82.5 118.577C82.5625 118.64 82.6875 118.64 82.75 118.64C82.6875 118.514 82.5625 118.388 82.4375 118.325C77.125 114.412 71.3125 111.383 65.125 108.985C52.4375 104 39.25 101.475 25.625 101.349C24.9375 101.349 24.3125 101.476 23.6875 101.854C22.125 102.675 20.5625 103.432 19 104.252ZM94.75 126.024C94.8125 126.087 94.8125 126.15 94.875 126.213C95.1875 126.213 95.5 126.213 95.875 126.15C100.5 125.329 105.125 124.635 109.875 124.257C114.062 123.941 118.188 123.626 122.375 123.436C126.5 123.31 130.562 123.436 134.688 123.373C141.75 123.31 148.75 123.373 155.75 124.004C160.5 124.446 165.312 124.698 170.062 125.014C170.938 125.077 171.75 125.014 172.625 125.014C172.625 124.951 172.625 124.888 172.625 124.825C171.5 123.815 170.375 122.868 169.188 121.859C169.188 121.985 169.187 121.985 169.25 122.048C169.562 122.427 170.062 122.742 169.75 123.247C169.438 123.815 168.875 123.626 168.375 123.562C168.312 123.562 168.313 123.562 168.25 123.562C166.688 123.31 165.125 122.931 163.5 122.742C159.375 122.363 155.25 121.859 151.125 121.732C143.625 121.48 136.062 121.417 128.5 121.417C122.688 121.417 116.938 121.48 111.125 121.669C108.25 121.795 105.375 122.048 102.5 122.49C99.9375 122.868 97.5625 123.878 95.3125 125.203C95.1875 125.519 95 125.834 94.75 126.024ZM3.75 128.989C4.125 128.989 4.3125 128.989 4.5625 128.989C13.1875 128.611 21.875 128.232 30.5 127.917C37.625 127.664 44.75 127.412 51.875 127.223C53.9375 127.159 56 127.096 58.125 127.159C64.1875 127.223 70.3125 127.412 76.375 127.475C77.25 127.475 78.0625 127.475 78.9375 127.475C78.75 127.349 78.625 127.286 78.4375 127.286C74.5 126.276 70.5 125.96 66.5 125.708C62.3125 125.456 58.0625 125.266 53.8125 125.203C49.125 125.14 44.4375 125.203 39.75 125.203C36.75 125.203 33.6875 125.203 30.6875 125.329C27.125 125.456 23.5625 125.771 20 126.024C17 126.213 13.9375 126.465 10.9375 126.781C9.875 126.907 8.8125 127.286 7.75 127.475C7.4375 127.538 7 127.475 6.75 127.286C6.375 126.97 6.625 126.591 6.8125 126.276C7.0625 125.834 7.3125 125.392 7.6875 124.825C7.1875 125.014 6.6875 125.014 6.5 125.266C5.5625 126.402 4.6875 127.664 3.75 128.989ZM176.75 132.397C176.562 131.892 176.375 131.514 176.188 131.072C175.875 130.252 175.375 129.999 174.438 129.999C170.812 130.062 167.188 129.999 163.562 129.936C141.438 129.747 119.312 129.557 97.1875 129.305C96.9375 129.305 96.625 129.305 96.375 129.305C96.3125 129.368 96.3125 129.431 96.25 129.494C96.625 129.873 97 130.441 97.4375 130.504C98.5625 130.693 99.6875 130.567 100.812 130.63C113.5 130.946 126.125 131.198 138.812 131.514C151.312 131.829 163.812 132.082 176.312 132.397C176.375 132.397 176.5 132.397 176.75 132.397ZM166.938 113.844C165.688 112.582 164.375 111.446 162.875 110.626C162 110.184 161.188 109.616 160.25 109.49C157.875 109.174 155.5 108.922 153.125 108.796C147 108.48 140.875 108.733 134.75 109.364C128.625 109.995 122.562 111.068 116.562 112.645C111.25 114.033 106.125 115.8 101.312 118.451C100.188 119.082 99.125 119.776 98.0625 120.407C98.0625 120.47 98.125 120.533 98.125 120.533C101 118.829 104.125 117.694 107.312 116.684C116 114.033 124.875 112.645 133.938 111.825C140 111.32 146.062 111.068 152.125 111.446C155.188 111.635 158.312 112.014 161.375 112.456C163.125 112.771 165 113.339 166.938 113.844ZM8.375 125.96C8.625 125.897 8.75 125.897 8.8125 125.897C11.625 125.203 14.5 125.014 17.4375 124.888C20.0625 124.761 22.6875 124.698 25.3125 124.509C28 124.32 30.625 123.941 33.25 123.941C45 123.941 56.8125 123.436 68.5625 124.572C71.4375 124.825 74.375 125.203 77.1875 125.708C79.625 126.15 82 126.97 84.4375 127.601C84.875 127.727 85.1875 127.664 85.1875 127.159C85 127.096 84.875 126.97 84.75 126.97C81.625 125.96 78.5 124.825 75.3125 124.004C72.25 123.247 69.0625 122.868 65.875 122.49C63.1875 122.111 60.5625 121.795 57.875 121.606C55.4375 121.417 53 121.48 50.5625 121.48C48.5625 121.48 46.5625 121.669 44.5625 121.732C43.3125 121.795 42 121.669 40.75 121.795C37.3125 122.048 33.9375 122.49 30.5 122.616C26.0625 122.805 21.625 123.058 17.25 123.626C14.9375 123.941 12.625 124.193 10.3125 124.509C9.4375 124.446 9 125.203 8.375 125.96ZM84.25 128.989C84.0625 128.989 83.9375 128.926 83.8125 128.926C79.0625 128.863 74.3125 128.737 69.5625 128.674C62.4375 128.611 55.3125 128.422 48.1875 128.548C41.125 128.674 34.0625 129.116 27 129.368C19.25 129.684 11.5 129.999 3.8125 130.315C2.875 130.378 2.5 130.946 2 131.64C2.375 131.64 2.625 131.64 2.9375 131.64C12.8125 131.387 22.6875 131.135 32.625 130.946C38.875 130.82 45.125 130.63 51.375 130.504C62 130.252 72.5625 129.999 83.1875 129.81C83.6875 129.747 84 129.557 84.25 128.989ZM106.625 120.66C110.25 120.596 113.875 120.344 117.5 120.344C124.812 120.281 132.125 120.155 139.438 120.281C145.062 120.344 150.625 120.66 156.188 120.975C159.062 121.101 162 121.48 164.875 121.795C165.75 121.859 166.562 122.048 167.375 122.237C167.125 121.795 166.875 121.417 166.5 121.164C165.875 120.66 165.188 120.155 164.312 120.092C162.438 119.902 160.562 119.713 158.75 119.524C152.625 118.893 146.438 118.514 140.25 118.451C131.562 118.325 122.938 118.514 114.312 119.587C111.75 119.776 109.188 120.281 106.625 120.66Z" fill="url(#paint0_linear_2605_2)"/>
<path d="M127.795 56.9197L122.972 52.096C122.246 51.3686 121.642 50.5291 121.182 49.6097L116.592 40.4297C116.468 40.1806 116.285 39.9646 116.06 39.7998C115.836 39.6349 115.575 39.5257 115.3 39.4813C115.025 39.4369 114.743 39.4585 114.478 39.5443C114.213 39.6302 113.972 39.7778 113.775 39.975C113.331 40.4179 112.778 40.7342 112.171 40.8911C111.564 41.0481 110.926 41.0399 110.324 40.8675L104.913 39.3247C104.048 39.0814 103.124 39.1543 102.307 39.5306C101.49 39.9068 100.835 40.5616 100.457 41.3777C100.079 42.1937 100.005 43.1176 100.247 43.9836C100.489 44.8497 101.031 45.6012 101.777 46.1035L104.272 47.761C106.779 49.4397 107.136 52.9885 105.003 55.122L104.153 55.972C103.252 56.873 102.75 58.0885 102.75 59.355V61.0975C102.75 62.8357 102.283 64.5357 101.39 66.019L95.8015 75.3307C95.0048 76.6595 93.8775 77.7592 92.5293 78.5226C91.1812 79.286 89.6583 79.6872 88.109 79.687C86.9198 79.687 85.7793 79.2146 84.9385 78.3737C84.0976 77.5328 83.6252 76.3924 83.6252 75.2032V70.2222C83.6252 66.3122 81.2452 62.7975 77.6157 61.344L74.832 60.2347C72.8066 59.4239 71.1193 57.945 70.0502 56.0433C68.9811 54.1416 68.5943 51.9315 68.9542 49.7797L68.984 49.6012C69.1815 48.4189 69.5996 47.2843 70.2165 46.2565L70.599 45.619C71.6139 43.9288 73.1265 42.5936 74.9296 41.7963C76.7327 40.999 78.7382 40.7785 80.6715 41.165L85.678 42.168C86.8561 42.4029 88.0796 42.1858 89.1049 41.5598C90.1302 40.9337 90.8823 39.9446 91.2115 38.7892L92.0955 35.6867C92.4017 34.6149 92.3238 33.4697 91.8753 32.4492C91.4267 31.4288 90.6357 30.5971 89.639 30.098L86.8127 28.687L86.426 29.0737C85.538 29.9617 84.4838 30.666 83.3236 31.1466C82.1635 31.6271 80.92 31.8745 79.6642 31.8745H78.8992C77.8444 31.876 76.833 32.2946 76.0857 33.039C75.4041 33.7268 74.4939 34.1407 73.5275 34.2025C72.5611 34.2642 71.6057 33.9694 70.8421 33.3739C70.0785 32.7784 69.5597 31.9236 69.3841 30.9713C69.2085 30.019 69.3882 29.0354 69.8892 28.2067L75.886 18.2065C76.4837 17.2124 76.8955 16.1179 77.1015 14.9765M127.795 56.9197C128.825 50.3625 128.13 43.6503 125.78 37.4429C123.43 31.2355 119.504 25.7465 114.39 21.5155C109.276 17.2846 103.149 14.4573 96.611 13.3115C90.0731 12.1657 83.3497 12.741 77.1015 14.9807C70.7448 17.2593 65.1047 21.1801 60.7543 26.3446C56.4038 31.5091 53.4981 37.7333 52.3325 44.3846C51.1669 51.036 51.7828 57.8773 54.1178 64.2135C56.4527 70.5496 60.4234 76.1547 65.6264 80.4591C70.8294 84.7635 77.0791 87.6138 83.7405 88.7203C90.4019 89.8268 97.2376 89.1501 103.553 86.759C109.868 84.3678 115.437 80.3475 119.695 75.1065C123.953 69.8655 126.748 63.5907 127.795 56.9197Z" stroke="white" stroke-width="6.375" stroke-linecap="round" stroke-linejoin="round"/>
<defs>
<linearGradient id="paint0_linear_2605_2" x1="90" y1="91" x2="90" y2="136" gradientUnits="userSpaceOnUse">
<stop stop-color="white"/>
<stop offset="1" stop-color="white"/>
</linearGradient>
</defs>
</svg>
