<svg width="48" height="48" viewBox="0 0 48 48" fill="none" xmlns="http://www.w3.org/2000/svg">
<rect width="48" height="48" rx="24" fill="#F03176"/>
<path d="M29.2401 34.75H18.7601C15.9601 34.75 14.1801 33.08 14.0201 30.29L13.5001 22.04C13.4201 20.79 13.8501 19.59 14.7101 18.68C15.5601 17.77 16.7601 17.25 18.0001 17.25C18.3201 17.25 18.6301 17.06 18.7801 16.76L19.5001 15.33C20.0901 14.16 21.5701 13.25 22.8601 13.25H25.1501C26.4401 13.25 27.9101 14.16 28.5001 15.32L29.2201 16.78C29.3701 17.06 29.6701 17.25 30.0001 17.25C31.2401 17.25 32.4401 17.77 33.2901 18.68C34.1501 19.6 34.5801 20.79 34.5001 22.04L33.9801 30.3C33.8001 33.13 32.0701 34.75 29.2401 34.75ZM22.8601 14.75C22.1201 14.75 21.1801 15.33 20.8401 16L20.1201 17.44C19.7001 18.25 18.8901 18.75 18.0001 18.75C17.1601 18.75 16.3801 19.09 15.8001 19.7C15.2301 20.31 14.9401 21.11 15.0001 21.94L15.5201 30.2C15.6401 32.22 16.7301 33.25 18.7601 33.25H29.2401C31.2601 33.25 32.3501 32.22 32.4801 30.2L33.0001 21.94C33.0501 21.11 32.7701 20.31 32.2001 19.7C31.6201 19.09 30.8401 18.75 30.0001 18.75C29.1101 18.75 28.3001 18.25 27.8801 17.46L27.1501 16C26.8201 15.34 25.8801 14.76 25.1401 14.76H22.8601V14.75Z" fill="white"/>
<path d="M25.5 20.75H22.5C22.09 20.75 21.75 20.41 21.75 20C21.75 19.59 22.09 19.25 22.5 19.25H25.5C25.91 19.25 26.25 19.59 26.25 20C26.25 20.41 25.91 20.75 25.5 20.75Z" fill="white"/>
<path d="M24 30.75C21.79 30.75 20 28.96 20 26.75C20 24.54 21.79 22.75 24 22.75C26.21 22.75 28 24.54 28 26.75C28 28.96 26.21 30.75 24 30.75ZM24 24.25C22.62 24.25 21.5 25.37 21.5 26.75C21.5 28.13 22.62 29.25 24 29.25C25.38 29.25 26.5 28.13 26.5 26.75C26.5 25.37 25.38 24.25 24 24.25Z" fill="white"/>
</svg>
