<svg width="55" height="51" viewBox="0 0 55 51" fill="none" xmlns="http://www.w3.org/2000/svg">
<path d="M28.7363 12.5581L28.8209 12.585L28.825 12.58C29.1825 12.6441 29.5269 12.4123 29.6278 12.0489C30.5631 8.6943 33.5065 6.35941 36.7765 6.35941C37.1789 6.35941 37.491 6.01369 37.491 5.60565C37.491 5.1976 37.1789 4.8519 36.7765 4.8519C32.7338 4.8519 29.3444 7.7242 28.2572 11.6236C28.1479 12.0151 28.3544 12.4365 28.7363 12.5581Z" fill="#5667FD" stroke="#F9FFF9" stroke-width="0.261386"/>
<path d="M44.9484 36.1357H41.446C41.1237 36.1357 40.8622 35.8566 40.8622 35.5126C40.8622 35.1686 41.1237 34.8896 41.446 34.8896H44.9484C49.7763 34.8896 53.7045 30.6968 53.7045 25.5437C53.7045 20.3906 49.7763 16.1978 44.9484 16.1978H44.8642C44.6949 16.1978 44.5339 16.1195 44.423 15.9829C44.3121 15.8463 44.2621 15.6651 44.2863 15.4862C44.3384 15.0981 44.3647 14.7083 44.3647 14.3287C44.3647 9.8627 40.9601 6.22888 36.776 6.22888C35.1482 6.22888 33.5958 6.77183 32.2866 7.79942C31.9989 8.02506 31.5902 7.92492 31.4239 7.58713C27.7159 0.050833 18.031 -0.961215 13.0099 5.59471C10.8947 8.35662 10.0637 11.9494 10.7296 15.4511C10.803 15.8378 10.5257 16.1983 10.1575 16.1983H9.92363C5.09572 16.1983 1.16754 20.3911 1.16754 25.5442C1.16754 30.6973 5.09572 34.89 9.92363 34.89H13.426C13.7483 34.89 14.0098 35.1691 14.0098 35.5131C14.0098 35.8571 13.7483 36.1362 13.426 36.1362H9.92363C4.45186 36.1362 0 31.3845 0 25.5441C0 19.8676 4.20539 15.2196 9.46539 14.9633C8.9713 11.3303 9.91613 7.66588 12.106 4.8061C17.4818 -2.21352 27.7841 -1.42671 32.1392 6.40068C33.5285 5.47098 35.1183 4.98326 36.7758 4.98326C41.8451 4.98326 45.8621 9.58858 45.5107 14.9691C50.7222 15.281 54.8718 19.9046 54.8718 25.5437C54.8718 31.3845 50.4199 36.1357 44.9481 36.1357L44.9484 36.1357Z" fill="#5667FD"/>
<path d="M12.6332 35.1608C12.6332 43.8138 19.2306 50.8681 27.3576 50.8681C35.4847 50.8681 42.082 43.8137 42.082 35.1608C42.082 26.5077 35.4847 19.4535 27.3576 19.4535C19.2305 19.4535 12.6332 26.5078 12.6332 35.1608ZM14.0624 35.1608C14.0624 27.3232 20.0346 20.9612 27.3576 20.9612C34.6805 20.9612 40.6528 27.3231 40.6528 35.1608C40.6528 42.9983 34.6805 49.3603 27.3576 49.3603C20.0347 49.3603 14.0624 42.9984 14.0624 35.1608Z" fill="#5667FD" stroke="#F9FFF9" stroke-width="0.261386"/>
<path d="M27.0666 41.4314C27.0666 41.7473 27.3086 42.0182 27.6246 42.0182C27.9406 42.0182 28.1827 41.7476 28.1827 41.4314V29.5714C28.1827 29.2555 27.9407 28.9845 27.6246 28.9845C27.3086 28.9845 27.0666 29.2555 27.0666 29.5714V41.4314Z" fill="#5667FD" stroke="#5667FD" stroke-width="0.261386"/>
<path d="M27.6247 30.4089L30.646 33.6338C30.7541 33.7491 30.8982 33.8087 31.0435 33.8087L27.6247 30.4089ZM27.6247 30.4089L24.6034 33.6337C24.385 33.8672 24.0267 33.867 23.8082 33.6338M27.6247 30.4089L23.8082 33.6338M23.8082 33.6338C23.5941 33.4053 23.5941 33.0384 23.8082 32.8099L27.227 29.1609L23.8082 33.6338ZM31.0436 33.8087C31.1886 33.8087 31.333 33.7496 31.4413 33.6336L31.0436 33.8087Z" fill="#5667FD" stroke="#5667FD" stroke-width="0.261386"/>
</svg>
